<svg xmlns="http://www.w3.org/2000/svg" height="40" width="590"><defs><clipPath id="a"><path d="M0 841.89h595.28V0H0v841.89z"/></clipPath></defs><path d="M0 40.03h40v-40H0v40z" fill="#3d539f"/><path d="M22.726 33.978V21.206h4.6l.687-4.98h-5.287v-3.18c0-1.44.43-2.422 2.646-2.422H28.2v-4.45c-.49-.062-2.168-.2-4.12-.2-4.077 0-6.868 2.32-6.868 6.58v3.67h-4.61v4.982h4.61v12.772h5.514" fill="#FFF"/><path d="M200 40.03h40v-40h-40v40z" fill="#52abe4"/><path d="M234 11.3c-1.03.458-2.136.765-3.298.903 1.187-.713 2.097-1.84 2.526-3.18-1.11.66-2.34 1.142-3.648 1.395-1.048-1.12-2.54-1.816-4.193-1.816-3.172 0-5.745 2.574-5.745 5.746 0 .452.05.89.15 1.31-4.775-.237-9.008-2.528-11.842-6-.494.844-.777 1.832-.777 2.89 0 1.992 1.014 3.746 2.555 4.78-.942-.03-1.827-.29-2.602-.72v.07c0 2.788 1.98 5.11 4.608 5.63-.482.14-.99.208-1.513.208-.37 0-.73-.04-1.08-.108.73 2.284 2.852 3.946 5.366 3.992-1.966 1.54-4.443 2.46-7.134 2.46-.464 0-.922-.03-1.37-.085 2.54 1.632 5.56 2.582 8.805 2.582 10.566 0 16.344-8.75 16.344-16.342 0-.245-.004-.498-.016-.744 1.123-.81 2.097-1.822 2.867-2.97" fill="#FFF"/><path d="M150 40.03h40v-40h-40v40z" fill="#cd1e28"/><path d="M168.066 24.554c-.736 3.854-1.623 7.547-4.287 9.477-.828-5.83 1.202-10.212 2.142-14.847-1.61-2.697.2-8.13 3.572-6.79 4.166 1.65-3.603 10.038 1.614 11.073 5.456 1.11 7.677-9.424 4.293-12.872-4.873-4.942-14.204-.107-13.055 6.987.273 1.725 2.067 2.254.717 4.652-3.127-.697-4.048-3.157-3.947-6.45.203-5.38 4.838-9.126 9.49-9.663 5.878-.652 11.402 2.168 12.155 7.7.86 6.244-2.648 13.002-8.943 12.52-1.69-.13-2.417-.974-3.75-1.786" fill="#FFF"/><path d="M299.997 40.03h40v-40h-40v40z" fill="#3479bd"/><path d="M306.057 33.365h6.002v-18.05h-6.003v18.05zm3.04-26.755c-2.053 0-3.396 1.348-3.396 3.118 0 1.74 1.306 3.126 3.32 3.126h.04c2.093 0 3.394-1.387 3.394-3.126-.04-1.77-1.3-3.118-3.356-3.118zm24.605 16.404v10.35H327.7v-9.653c0-2.428-.868-4.083-3.04-4.083-1.658 0-2.645 1.12-3.08 2.2-.158.382-.2.92-.2 1.463v10.075h-6s.08-16.358 0-18.05h6v2.558c-.01.023-.026.038-.038.06h.04v-.06c.797-1.226 2.22-2.98 5.408-2.98 3.95 0 6.912 2.58 6.912 8.12" fill="#FFF"/><path d="M100.002 39.97h40v-40h-40v40z" fill="#314a6c"/><path fill="#FFF" d="M122.306 28.86c-1.286-.633-1.282-2.16-1.23-3.387.003-2.676.002-5.353.002-8.03h6.53V12.45h-6.53V5.974h-4.017c-.245 2.715-1.58 5.566-4.16 6.763-.623.54-2.203.296-1.918 1.41v3.297h3.836c.015 3.575-.03 7.152.025 10.726 0 1.51.623 3.01 1.838 3.94 2.515 2.094 6.086 2.215 9.13 1.43.896-.432 2.593-.467 2.905-1.418v-4.09c-1.827 1.19-4.375 1.968-6.41.828z"/><path d="M450 40.023h40v-40h-40v40z" fill="#f2f2f2"/><path d="M350 40.023h40v-40h-40v40z" fill="#100f0d"/><path fill-rule="evenodd" d="M381.514 22.86h-2.177v-4.98h2.177v4.98zm2.49-7.462h-7.468v9.953h4.978v2.177h-4.978v2.804h7.468V15.4zm-12.756 7.462v-4.98h1.867v4.98h-1.867zm4.666-7.462h-7.466v9.953h4.667v2.177h-4.667v2.804h7.466V15.4zm-11.51-4.98h2.8v2.796h-2.8v-2.797zm0 4.98h2.8v9.953h-2.8V15.4zm-5.6 7.462v-4.98h2.177v4.98h-2.177zm2.177-12.443v4.98h-4.977v9.954h7.776V10.418h-2.8" fill="#FFF"/><g><path d="M250 40.03h40v-40h-40v40z" fill="#cee3f8"/><g clip-path="url(#a)" transform="matrix(.29042 0 0 -.29042 175.76 101.045)"><path fill="#FFF" d="M359.352 305.65c-7.422-.482-10.194 11.12-3.237 13.992 5.94 3.094 13.2-4.014 9.786-9.92-1.21-2.424-3.802-4.158-6.548-4.073zm-65.1-18.523c13.577 8.364 30.752 9.8 46.015 5.864 10.584-3.033 21.82-9.233 25.427-20.344 3.517-9.545-1.65-19.993-9.465-25.663-12.482-9.192-29.08-11.15-44.05-8.604-10.338 2.048-20.983 6.74-27.158 15.632-5.06 7.347-5.124 17.774.428 24.874 1.334 2.937-1.558-4.387-3.23-4.51-4.413-.413-8.348 4.018-8.5 8.31-.867 8.056 8.474 14.608 15.798 11.31 2.352-.908 6.233-4.447 4.733-6.868zm72.292-13.87c5.65-.56 10.955 4.554 10.1 10.28-.253 8.174-9.454 14.756-17.163 11.353-2.396-.56-6.766-5.513-4.736-6.325 2.14 3.935 5.838 6.93 10.657 6.09 7.128-.686 12.948-9 9.377-15.704-1.585-3.308-6.073-3.647-8.233-5.692zm-87.47-3.948c-.824 4.512-8.222 4.573-8.387 10.156-3 10.213 7.714 20.763 17.888 18.41 4.146-.094 7.076-4.688 9.37-6.12 7.036 3.435 14.81 5.222 22.61 5.63.866 8.162 1.17 17.287 6.763 23.823 5.04 3.778 11.16.142 16.473-.895 4.024-2.556 8.326-1.907 10.98 1.94 6.323 3.32 15.085-1.77 14.904-9.045.26-6.755-7.047-12.306-13.497-10.142-5.787 1.83-6.374 9.944-13.14 10.046-5.262 1.88-14.393 5.48-14.12-3.42.48-4.067-4.036-11.405 1.666-12.846 7.117-.067 14.14-2.5 20.498-5.623 2.594-.365 4.4 5.93 8.5 5.998 8.517 3.05 18.377-3.647 19.122-12.576 1.037-5.814-2.66-12.297-8.72-13.24-2.774-3.064.62-8.92-2.19-12.906-4.922-12.895-18.45-19.787-31.27-22.407-15.904-3.178-33.546-.41-46.638 9.505-7.04 5.576-12.355 14.46-10.808 23.707m2.735 2.38c-3.232-10.705 3.92-21.76 13.117-26.88 16.833-10.196 39.073-10.236 56.36-1.12 9.327 4.903 17.497 15.046 15.36 26.13-2.465 11.867-13.687 19.393-24.6 22.76-5.13 2.212-12.453 1.75-16.656 3.36.506 6.86.475 14.034 3.506 20.374 4.39 3.938 10.428-.386 15.185-1.447 5.173.04 7.646-3.342 9.386-7.516 4.28-4.638 13.007-2.16 13.89 4.155 1.266 6.11-5.81 11.793-11.374 8.948-3.043-2.528-5.074-6.637-9.312-3.416-5.157 1.82-10.477 3.543-16 3.605-6.067-3.018-5.624-10.755-7.45-16.34.162-4.275.63-10.895-5.74-9.354-7.45-.767-14.804-2.905-21.33-6.615-1.78 7.435-11.567 9.71-17.416 5.568-5.775-3.404-8.75-12.126-3.876-17.507.773-3.008 8.485-2.032 6.952-4.703z"/><path fill="#393536" d="M359.352 306.75c-3.445 0-6.238 2.792-6.238 6.24 0 3.442 2.793 6.237 6.238 6.237 3.444 0 6.235-2.795 6.235-6.237 0-3.448-2.79-6.24-6.235-6.24m-35.356-12.776c23.013 0 41.68-12.026 41.68-27.805s-18.667-27.734-41.68-27.734c-23.014 0-41.678 11.954-41.678 27.733s18.664 27.804 41.678 27.804m-30.38-5.953c-4.76-3.403-8.958-7.062-11.526-12.507l-.063-.165c-2.334.295-4.458 1.43-5.834 3.372-2.82 3.968-1.463 9.795 3.04 12.992 4.494 3.2 10.443 2.574 13.265-1.4.51-.71.873-1.48 1.117-2.29m72.31-12.562v.004c2.912-.138 5.686 1.017 7.352 3.36 2.77 3.898 1.435 9.614-2.982 12.755-4.414 3.14-10.253 2.528-13.024-1.38-.7-.98-1.137-2.083-1.33-3.224l-.016.002c3.635-2.62 6.594-5.687 8.677-9.07.493-.8.934-1.617 1.325-2.448m-85.157-3.407c-.51-1.91-.83-3.868-.83-5.884 0-16.687 19.728-30.213 44.058-30.213 24.328 0 44.065 13.526 44.065 30.212 0 1.945-.274 3.852-.792 5.696-.015.053-.032.108-.046.162l-.05.18c3.418.3 6.044.482 8.963 4.583s1.955 13.05-4.048 17.32c-5.995 4.265-13.914 3.425-17.68-1.872-.717-1.005-1.23-2.1-1.553-3.243v-.007c-7.145 4.25-16.302 6.956-26.364 7.343.223 4.554 1.25 20.553 4.776 20.553 5.273 0 16.228-4.1 18.987-5.17.622-4.472 4.462-7.91 9.1-7.91 5.076 0 9.184 4.117 9.184 9.187 0 5.072-4.108 9.184-9.185 9.184-3.75 0-6.98-2.254-8.403-5.478-4.098 1.536-14.212 5.102-19.684 5.102-7.86 0-9.415-20.597-9.674-25.464-9.358-.34-17.95-2.695-24.86-6.436-.324.87-.757 1.713-1.314 2.482-3.837 5.4-11.904 6.252-18.014 1.906-6.115-4.345-7.955-12.246-4.12-17.635 1.79-2.522 4.505-4.053 7.516-4.52l-.03-.077h-.002z" fill-rule="evenodd"/><path fill="#ed1c24" d="M339.327 279.253c3.637 0 6.586-2.95 6.586-6.586s-2.95-6.585-6.586-6.585-6.585 2.95-6.585 6.585c0 3.637 2.948 6.586 6.585 6.586M308.25 279.253c3.636 0 6.584-2.95 6.584-6.586s-2.948-6.585-6.585-6.585-6.587 2.95-6.587 6.585c0 3.637 2.95 6.586 6.586 6.586" fill-rule="evenodd"/><path fill="#231f20" d="M321.208 248.01c.925-.07 1.86-.106 2.79-.107.93 0 1.862.036 2.787.106 6.357.475 8.763 2.326 12.202 5.913 1.12 1.168 2.19.678 2.564.134.756-1.1-.9-3.14-1.73-3.925-3.616-3.423-8.15-4.913-12.8-5.262-1-.075-2.012-.113-3.023-.114-1.012 0-2.023.04-3.023.114-3.683.277-7.027 1.224-10.054 3.306-1.22.84-5.763 4.483-4.477 5.88.447.486 1.442 1.035 2.563-.133 3.44-3.587 5.847-5.438 12.202-5.914"/></g></g><g><path d="M549.997 40.03h40v-40h-40v40z" fill="#42678e"/><path fill="#FFF" d="M584.753 26.862c-1.07-2.06-3.04-3.392-4.51-5.117-.654-1.11.608-2.083 1.14-2.946 1.267-1.722 2.773-3.365 3.474-5.417.402-1.14-1.066-1.234-1.83-1.106-1.502.015-3.01.013-4.508.037-1.137.455-1.04 2.14-1.767 3.025-.85 1.515-1.663 3.143-3.016 4.28-1.465.55-1.273-1.747-1.23-2.656-.063-1.477.25-2.98-.04-4.437-.54-1.278-2.243-.92-3.383-1.03-1.225.06-2.592-.113-3.668.576-1.257.913 1.063.613 1.11 1.61.5 1.783.43 3.716.01 5.506-.605 1.546-2.15-.22-2.57-1.067-1.02-1.736-1.905-3.555-2.727-5.39-.662-.76-1.74-.406-2.618-.477-1.027.04-2.068-.057-3.085.092-1.048.565.173 1.818.368 2.603 1.753 3.683 3.8 7.29 6.588 10.293 2.014 1.898 4.685 3.4 7.535 3.18.782-.072 1.73.233 2.327-.42.35-1.025-.005-2.337.87-3.183.974-.884 1.962.62 2.57 1.283 1.005 1.177 2.264 2.6 3.986 2.378 1.43-.043 2.868.004 4.294-.106.78-.094.982-.878.68-1.512z"/></g><g><path d="M500 40.023h40v-40h-40v40z" fill="#f6881f"/><g fill="#FFF" clip-rule="evenodd" fill-rule="evenodd"><path d="M518.537 25.298c-2.303-.21-4.38-.704-6.158-1.918-.222-.15-.45-.297-.65-.465-.78-.652-.857-1.4-.24-2.17.525-.658 1.41-.834 2.33-.456.177.073.347.164.51.262 3.313 1.987 7.865 2.042 11.19.09.33-.22.683-.4 1.09-.492.795-.178 1.536.077 1.962.682.486.692.48 1.368-.12 1.905-.92.824-2.026 1.42-3.255 1.836-1.162.393-2.435.59-3.695.722.19.18.28.27.398.374 1.71 1.5 3.43 2.992 5.135 4.497.58.513.702 1.148.382 1.744-.35.653-1.132 1.08-1.9 1.036-.487-.03-.866-.24-1.203-.537-1.29-1.135-2.607-2.247-3.872-3.402-.368-.336-.545-.273-.87.02-1.298 1.166-2.618 2.315-3.946 3.457-.597.513-1.306.605-1.997.312-.737-.31-1.204-.965-1.168-1.623.025-.445.276-.785.626-1.09 1.693-1.475 3.38-2.954 5.07-4.432.112-.098.217-.202.38-.354z"/><path d="M519.94 20.16c-4.11-.012-7.478-2.985-7.454-6.576.023-3.63 3.395-6.556 7.545-6.546 4.16.01 7.496 2.978 7.475 6.646-.02 3.584-3.414 6.488-7.564 6.476zm3.735-6.567c-.007-1.783-1.635-3.202-3.674-3.204-2.055-.003-3.697 1.442-3.682 3.242.016 1.776 1.657 3.185 3.702 3.18 2.04-.008 3.662-1.436 3.655-3.22z"/></g></g><g><path d="M0 40.03h40v-40H0v40z" fill="#3d539f"/><path d="M22.726 33.978V21.206h4.6l.687-4.98h-5.287v-3.18c0-1.44.43-2.422 2.646-2.422H28.2v-4.45c-.49-.062-2.168-.2-4.12-.2-4.077 0-6.868 2.32-6.868 6.58v3.67h-4.61v4.982h4.61v12.772h5.514" fill="#FFF"/></g><g transform="matrix(.0586 0 0 .0586 455 5.023)"><path d="M403.51 247.992c12.19-23.72 13.5-45.9 3.546-63.137-10.316-17.868-31.605-28.033-59.944-28.622-20.81-.427-44.44 4.31-68.13 13.528 8.165-27.85 5.53-49.96-7.877-63.368-16.113-16.113-44.9-16.666-81.056-1.558-33.716 14.088-70.765 40.33-104.326 73.89C35.742 228.705 2.534 286.68.944 326.653.32 330.615 0 334.578 0 338.44c0 35.794 25.09 69.018 70.648 93.548 43.858 23.617 101.98 36.622 163.656 36.622 61.677 0 119.798-13.005 163.656-36.622 45.558-24.53 70.648-57.754 70.648-93.547 0-34.373-23.032-66.256-65.098-90.448z" fill="#ea533b"/><path d="M260.338 459.932c-61.677 0-119.798-13.005-163.656-36.622-45.558-24.53-70.648-57.754-70.648-93.547 0-3.863.318-7.825.945-11.787 1.588-39.973 34.796-97.947 84.78-147.93 33.226-33.226 69.87-59.27 103.313-73.458-7.854 1.823-16.218 4.566-25.023 8.245-33.715 14.088-70.764 40.33-104.325 73.89-49.983 49.984-83.19 107.96-84.78 147.93C.318 330.617 0 334.58 0 338.442c0 35.794 25.09 69.018 70.648 93.548 43.858 23.617 101.98 36.622 163.656 36.622 48.616 0 95.016-8.086 133.97-23.074-32.922 9.405-69.745 14.396-107.936 14.396z" fill="#d93c1c"/><path d="M364.19 312.032c-2.568-29.565-22.08-55.61-54.944-73.338-31.68-17.09-72.302-24.49-114.382-20.835-42.08 3.655-80.818 17.948-109.076 40.246-29.314 23.13-44.045 52.15-41.476 81.715 2.57 29.566 22.082 55.61 54.946 73.34 26.39 14.235 58.976 21.747 93.447 21.746 6.913 0 13.905-.302 20.934-.913 42.078-3.654 80.816-17.948 109.074-40.246 29.315-23.13 44.044-52.15 41.476-81.715z" fill="#fff"/><path d="M230.36 425.32c-7.03.61-14.02.912-20.934.912-34.47 0-67.06-7.51-93.447-21.747-32.864-17.73-52.38-43.774-54.947-73.338-2.57-29.564 12.16-58.584 41.476-81.715 5.798-4.575 12.045-8.808 18.664-12.687-12.993 5.932-24.91 13.095-35.388 21.36-29.314 23.132-44.045 52.152-41.476 81.716 2.57 29.566 22.082 55.61 54.946 73.34 26.39 14.235 58.976 21.747 93.447 21.746 6.913 0 13.905-.302 20.934-.913 33.445-2.905 64.77-12.535 90.41-27.56-22.053 10.07-47.206 16.586-73.687 18.886z" fill="#e5e5e5"/><path d="M286.65 312.533c-9.507-39.544-55.55-62.508-102.638-51.19-47.088 11.32-77.66 52.704-68.156 92.25 4.682 19.473 18.156 35.492 37.943 45.105 12.282 5.967 26.1 9.003 40.354 9.003 8.042 0 16.22-.966 24.34-2.917 47.088-11.32 77.663-52.703 68.156-92.25z" fill="#333"/><circle r="30.373" cy="351.457" cx="177.898" fill="#fff"/><g fill="#ffa929"><path d="M373.152 117.153c-7.19 0-13.017 5.828-13.017 13.017 0 7.19 5.828 13.017 13.017 13.017 26.318 0 47.73 21.41 47.73 47.73 0 7.188 5.827 13.016 13.016 13.016 7.19 0 13.017-5.828 13.017-13.017 0-40.673-33.09-73.763-73.763-73.763z"/><path d="M364.475 43.39c-3.26 0-6.564.108-9.817.322-9.564.63-16.808 8.893-16.18 18.458.63 9.564 8.9 16.804 18.458 16.18 2.498-.164 5.035-.248 7.54-.248 62.205 0 112.812 50.608 112.812 112.813 0 7.606-.76 15.204-2.257 22.58-1.395 6.876 1.692 14.21 7.577 18.026 5.99 3.885 14.11 3.588 19.83-.674 3.387-2.525 5.773-6.307 6.613-10.445 1.958-9.645 2.95-19.565 2.95-29.486C512 109.57 445.82 43.39 364.475 43.39z"/></g><circle r="17.356" cy="321.085" cx="234.305" fill="#fff"/></g></svg>