<?xml version="1.0" encoding="UTF-8" standalone="no"?>
<!DOCTYPE svg PUBLIC "-//W3C//DTD SVG 1.1//EN" "http://www.w3.org/Graphics/SVG/1.1/DTD/svg11.dtd">
<svg width="250" height="426" viewBox="0 0 251 426" version="1.1" xmlns="http://www.w3.org/2000/svg" xmlns:xlink="http://www.w3.org/1999/xlink" xml:space="preserve" xmlns:serif="http://www.serif.com/" style="fill-rule:evenodd;clip-rule:evenodd;">
    <g id="g9" transform="matrix(0.807637,0,0,0.807894,0.0127598,-0.00232721)">
        <path id="path11" d="M8.248,6.614C12.258,6.522 16.024,9.784 16.448,13.784C16.954,17.3 14.886,20.951 11.646,22.377C9.682,23.352 7.466,23.052 5.354,23.102L3.29,23.102L3.29,29.712L0.024,29.712C0.03,24.612 0.011,19.512 0.034,14.412C0.141,10.612 3.252,7.21 7.008,6.704C7.418,6.644 7.834,6.614 8.248,6.614ZM8.248,19.834C10.605,19.892 12.816,18.054 13.168,15.718C13.638,13.368 12.138,10.842 9.846,10.138C7.632,9.351 4.968,10.385 3.886,12.476C3.048,13.906 3.346,15.593 3.29,17.166L3.29,19.834L8.248,19.834ZM18.024,6.534L21.254,6.534L21.254,23.022L18.024,23.022L18.024,6.534ZM30.964,16.904L31.08,16.904L35.673,23.028L39.677,23.028L33.435,14.548L38.97,6.542L34.966,6.542L31.08,12.194L30.963,12.194L27.077,6.542L23.073,6.542L28.607,14.549L22.367,23.026L26.37,23.026L30.964,16.904Z" style="fill:rgb(51,51,51);fill-rule:nonzero;"/>
        <path id="path13" d="M46.997,6.534C50.269,6.47 53.407,8.614 54.619,11.64C55.249,13.046 55.239,14.603 55.219,16.112L55.219,23.022C52.304,23.012 49.387,23.042 46.469,23.006C43.119,22.843 40.053,20.399 39.094,17.191C38.214,14.404 38.944,11.166 41.016,9.081C42.563,7.481 44.761,6.515 46.994,6.536L46.997,6.534ZM51.955,19.754C51.941,17.921 51.985,16.086 51.93,14.254C51.737,11.798 49.462,9.74 46.997,9.804C44.653,9.747 42.444,11.564 42.077,13.884C41.647,16.112 42.927,18.538 45.051,19.369C46.361,19.939 47.807,19.702 49.191,19.752L51.957,19.752L51.955,19.754ZM65.06,6.614C68.93,6.519 72.547,9.564 73.163,13.374C73.863,16.988 71.823,20.89 68.458,22.377C65.171,23.929 60.944,22.929 58.684,20.087C57.284,18.437 56.679,16.241 56.798,14.102L56.798,0.005L60.066,0.005L60.066,6.615L65.061,6.615L65.06,6.614ZM65.06,19.834C67.542,19.9 69.81,17.816 69.993,15.347C70.303,12.893 68.485,10.425 66.056,9.979C64.713,9.793 63.349,9.919 61.996,9.879L60.066,9.879C60.086,11.743 60.021,13.609 60.104,15.469C60.364,17.929 62.588,19.879 65.061,19.829L65.06,19.834ZM82.768,6.534C86.04,6.47 89.178,8.614 90.39,11.64C91.022,13.046 91.013,14.603 90.993,16.112L90.993,23.022C88.077,23.012 85.16,23.042 82.243,23.006C78.893,22.843 75.826,20.399 74.867,17.191C73.987,14.404 74.717,11.166 76.789,9.081C78.334,7.481 80.532,6.515 82.765,6.536L82.768,6.534ZM87.725,19.754C87.711,17.921 87.755,16.086 87.701,14.254C87.511,11.798 85.235,9.74 82.771,9.804C80.426,9.747 78.217,11.564 77.851,13.884C77.421,16.112 78.701,18.538 80.824,19.369C82.132,19.939 83.578,19.702 84.961,19.752L87.726,19.752L87.725,19.754ZM108.98,6.574C108.974,11.662 108.994,16.75 108.97,21.837C108.852,25.841 105.41,29.44 101.394,29.649C100.631,29.689 99.866,29.663 99.102,29.669L99.102,26.402C100.497,26.395 101.988,26.537 103.222,25.747C104.766,24.881 105.746,23.135 105.712,21.37C102.815,23.707 98.325,23.586 95.508,21.175C93.455,19.518 92.334,16.853 92.492,14.23L92.492,6.575L95.76,6.575C95.775,9.485 95.73,12.398 95.784,15.307C95.961,17.657 98.019,19.663 100.374,19.781C102.802,20.031 105.192,18.201 105.614,15.801C105.798,14.458 105.674,13.091 105.711,11.737L105.711,6.577L108.981,6.577L108.98,6.574Z" style="fill:rgb(51,51,51);fill-rule:nonzero;"/>
    </g>
    <path id="path15" d="M166.661,15.096L162.23,10.646C164.083,8.18 163.856,4.433 161.744,2.191C159.714,-0.086 156.094,-0.689 153.461,0.861C150.931,2.271 149.519,5.421 150.206,8.257C150.852,11.22 153.676,13.551 156.716,13.507C158.116,13.514 159.516,13.057 160.65,12.234C162.153,13.739 163.646,15.254 165.158,16.754C166.071,17.564 167.655,16.201 166.776,15.222L166.663,15.095L166.661,15.096ZM156.77,11.918C154.16,11.99 151.757,9.738 151.633,7.118C151.428,4.658 153.208,2.208 155.623,1.71C157.953,1.155 160.57,2.444 161.493,4.678C162.5,6.938 161.641,9.875 159.493,11.14C158.683,11.647 157.728,11.923 156.771,11.918L156.77,11.918Z" style="fill:white;fill-rule:nonzero;"/>
    <path id="path19" d="M68.484,251.78C67.804,252.08 67.074,252.285 66.309,252.376C67.091,251.906 67.692,251.166 67.974,250.281C67.242,250.713 66.432,251.028 65.57,251.198C64.88,250.462 63.895,250.002 62.806,250.002C60.361,250.002 58.564,252.282 59.116,254.652C55.97,254.495 53.179,252.987 51.312,250.696C50.32,252.398 50.797,254.626 52.484,255.752C51.864,255.734 51.279,255.562 50.768,255.279C50.728,257.034 51.985,258.674 53.806,259.039C53.273,259.185 52.689,259.219 52.096,259.105C52.576,260.61 53.976,261.705 55.633,261.735C54.041,262.982 52.036,263.54 50.027,263.303C51.705,264.379 53.695,265.006 55.834,265.006C62.864,265.006 66.837,259.068 66.597,253.742C67.335,253.208 67.977,252.542 68.485,251.782L68.484,251.78Z" style="fill:rgb(85,85,85);fill-rule:nonzero;"/>
    <path id="path21" d="M110.526,202.36C111.573,202.36 112.511,201.79 113.152,201.36L113.152,209.505C112.512,209.935 111.572,210.505 110.527,210.505C109.482,210.505 108.545,210.195 107.904,209.765C107.264,209.333 106.324,209.023 105.279,209.023C104.234,209.023 103.297,209.557 102.655,209.988L102.655,201.844C103.295,201.414 104.235,200.882 105.28,200.882C106.325,200.882 107.265,201.192 107.906,201.622C108.546,202.052 109.486,202.362 110.53,202.362L110.526,202.36ZM100.902,200.004C101.385,200.004 101.777,200.396 101.777,200.879L101.777,214.004L100.027,214.004L100.027,200.879C100.027,200.396 100.421,200.004 100.904,200.004L100.902,200.004Z" style="fill:white;fill-rule:nonzero;"/>
    <path id="path23" d="M100.026,100.002L122.026,100.002L122.026,102.002L100.026,102.002L100.026,100.002ZM100.026,107.002L122.026,107.002L122.026,109.002L100.026,109.002L100.026,107.002ZM100.026,114.002L122.026,114.002L122.026,116.002L100.026,116.002L100.026,114.002Z" style="fill:rgb(99,99,99);fill-rule:nonzero;"/>
    <g id="g31" transform="matrix(1,0,0,1,0.006,0.00171548)">
        <path id="path33" d="M105.308,62.668C104.822,62.742 104.338,62.838 103.852,62.895C103.188,62.935 102.562,62.398 102.492,61.738L102.382,61.016C101.625,61.776 100.86,62.53 100.108,63.296C99.896,63.552 100.101,63.971 100.428,63.98L101.788,64.234C101.884,64.727 101.968,65.221 102.068,65.712C102.161,66.032 102.622,66.1 102.815,65.835L105.692,62.958C105.57,62.856 105.482,62.68 105.308,62.668Z" style="fill:white;fill-rule:nonzero;"/>
        <path id="path35" d="M109.387,62.147C109.907,62.205 110.423,62.379 110.945,62.341C111.445,62.247 111.575,61.721 111.605,61.286C111.72,60.784 111.625,60.103 112.185,59.85C112.63,59.597 113.138,59.44 113.527,59.11C113.877,58.74 113.67,58.235 113.442,57.865C113.247,57.399 112.782,56.925 113.05,56.395C113.266,55.92 113.592,55.483 113.716,54.975C113.78,54.47 113.316,54.185 112.916,54.02C112.473,53.754 111.796,53.635 111.726,53.023C111.626,52.523 111.634,51.993 111.439,51.52C111.191,51.074 110.649,51.114 110.229,51.217C109.724,51.257 109.129,51.557 108.709,51.135C108.326,50.785 108.012,50.345 107.573,50.067C107.093,49.834 106.697,50.257 106.403,50.581C106.031,50.921 105.693,51.501 105.105,51.345C104.61,51.29 104.118,51.122 103.62,51.163C103.12,51.26 102.993,51.787 102.96,52.221C102.846,52.723 102.943,53.405 102.38,53.658C101.937,53.908 101.428,54.065 101.04,54.398C100.69,54.768 100.897,55.271 101.125,55.64C101.32,56.106 101.787,56.58 101.517,57.11C101.301,57.584 100.977,58.02 100.851,58.53C100.789,59.035 101.251,59.32 101.651,59.485C102.096,59.75 102.774,59.869 102.841,60.482C102.941,60.982 102.935,61.512 103.131,61.985C103.375,62.431 103.916,62.39 104.341,62.287C104.843,62.247 105.438,61.947 105.861,62.369C106.241,62.719 106.555,63.156 106.993,63.436C107.503,63.68 107.899,63.2 108.215,62.87C108.558,62.564 108.849,62.043 109.387,62.148L109.387,62.147ZM107.284,61.441C105.072,61.474 103.004,59.771 102.596,57.601C102.129,55.508 103.271,53.211 105.21,52.307C107.09,51.345 109.555,51.879 110.902,53.497C112.364,55.127 112.459,57.771 111.118,59.503C110.234,60.703 108.776,61.448 107.284,61.445L107.284,61.441Z" style="fill:white;fill-rule:nonzero;"/>
        <path id="path37" d="M107.284,52.517C105.029,52.531 103.199,54.367 103.199,56.627C103.199,58.882 105.029,60.72 107.282,60.734C109.537,60.72 111.367,58.884 111.367,56.626C111.367,54.368 109.537,52.531 107.281,52.516L107.284,52.517ZM114.422,63.252L112.186,61.016C112.126,61.351 112.106,61.696 112.008,62.023C111.801,62.631 111.114,63.011 110.488,62.868L109.26,62.668C109.086,62.682 108.998,62.855 108.876,62.958L111.796,65.878C112.032,66.138 112.506,65.958 112.522,65.611C112.608,65.154 112.692,64.695 112.779,64.237C113.269,64.142 113.764,64.057 114.255,63.957C114.549,63.867 114.645,63.467 114.421,63.254L114.422,63.252Z" style="fill:white;fill-rule:nonzero;"/>
    </g>
    <g id="g39" transform="matrix(1,0,0,1,0.006,0.00171548)">
        <path id="path41" d="M61.663,357.677L61.121,357.677C61.044,357.677 60.979,357.703 60.929,357.754C60.879,357.804 60.853,357.871 60.853,357.951L60.853,360.695C60.853,361.072 60.721,361.395 60.456,361.663C60.191,361.931 59.872,362.067 59.5,362.067L52.46,362.067C52.087,362.067 51.77,361.933 51.503,361.664C51.236,361.395 51.106,361.074 51.106,360.697L51.106,353.567C51.106,353.191 51.239,352.867 51.504,352.6C51.769,352.333 52.089,352.196 52.461,352.196L58.418,352.196C58.498,352.196 58.562,352.17 58.613,352.119C58.663,352.066 58.689,352.001 58.689,351.921L58.689,351.371C58.689,351.291 58.663,351.226 58.613,351.174C58.563,351.124 58.497,351.097 58.418,351.097L52.46,351.097C51.79,351.097 51.216,351.339 50.74,351.821C50.263,352.304 50.024,352.885 50.024,353.565L50.024,360.695C50.024,361.373 50.264,361.955 50.739,362.437C51.215,362.92 51.789,363.161 52.459,363.161L59.499,363.161C60.169,363.161 60.744,362.921 61.219,362.437C61.697,361.955 61.936,361.373 61.936,360.694L61.936,357.952C61.936,357.872 61.91,357.807 61.859,357.755C61.809,357.705 61.744,357.678 61.665,357.678L61.663,357.677Z" style="fill:white;fill-rule:nonzero;"/>
        <path id="path43" d="M65.02,350.163C64.914,350.053 64.787,350 64.64,350L60.31,350C60.162,350 60.035,350.054 59.928,350.163C59.821,350.271 59.768,350.4 59.768,350.548C59.768,350.696 59.821,350.825 59.928,350.934L61.418,352.442L55.901,358.029C55.847,358.084 55.819,358.149 55.819,358.224C55.819,358.298 55.847,358.364 55.903,358.421L56.869,359.397C56.925,359.454 56.989,359.482 57.063,359.482C57.137,359.482 57.203,359.454 57.258,359.396L62.774,353.809L64.264,355.317C64.371,355.427 64.498,355.481 64.644,355.481C64.79,355.481 64.918,355.426 65.026,355.318C65.133,355.208 65.186,355.081 65.186,354.932L65.186,350.545C65.186,350.397 65.133,350.268 65.026,350.16L65.02,350.163Z" style="fill:white;fill-rule:nonzero;"/>
    </g>
    <path id="path45" d="M207.026,250.64C203.511,250.64 200.661,253.078 200.661,256.087C200.661,257.657 201.441,259.067 202.681,260.06C202.448,260.695 202.053,261.524 201.381,262.372C202.654,262.372 204.291,262.196 205.553,261.382C206.027,261.479 206.519,261.534 207.027,261.534C210.545,261.534 213.395,259.094 213.395,256.087C213.395,253.08 210.545,250.64 207.029,250.64L207.026,250.64Z" style="fill:none;fill-rule:nonzero;stroke:white;stroke-width:1.27px;"/>
    <g id="g47" transform="matrix(1,0,0,1,0.006,0.00171548)">
        <path id="path49" d="M163.146,352.572L163.146,361.142L152.646,361.142L152.646,352.572L163.146,352.572M164.021,351.715L151.771,351.715L151.771,362L164.021,362L164.021,351.715ZM150.021,350L150.021,360.286L150.898,360.286L150.898,350.858L162.273,350.858L162.273,350L150.021,350Z" style="fill:white;fill-rule:nonzero;"/>
        <rect id="path51" x="152.334" y="352.232" width="11.06" height="9.394" style="fill:white;fill-rule:nonzero;"/>
    </g>
    <g id="g53" transform="matrix(1,0,0,1,0.006,0.00171548)">
        <rect id="path55" x="204.04" y="149.997" width="4.02" height="6.555" style="fill:rgb(102,102,102);fill-rule:nonzero;"/>
        <g id="path57" transform="matrix(0.8037,0,0,0.77824,537.666,422.157)">
            <clipPath id="_clip1">
                <path d="M-420.39,-343.392L-412.613,-351.207L-404.835,-343.392L-412.613,-335.577L-420.39,-343.392Z"/>
            </clipPath>
            <g clip-path="url(#_clip1)">
                <rect x="-420.11" y="-342" width="15" height="10.048" style="fill:rgb(102,102,102);fill-rule:nonzero;"/>
            </g>
        </g>
    </g>
    <path id="path59" d="M212.633,129.612L209.465,132.664L210.185,137.002L206.299,134.935L202.393,136.96L203.159,132.63L200.024,129.544L204.384,128.934L206.351,125.002L208.278,128.956L212.633,129.612ZM205.946,100C202.676,100 200.024,102.286 200.024,105.107C200.024,106.577 200.75,107.9 201.904,108.832C201.687,109.427 201.319,110.205 200.694,111C201.879,111 203.402,110.835 204.574,110.07C205.016,110.162 205.474,110.214 205.947,110.214C209.22,110.214 211.872,107.928 211.872,105.107C211.872,102.287 209.22,100 205.949,100L205.946,100Z" style="fill:rgb(102,102,102);fill-rule:nonzero;"/>
    <path id="path61" d="M200.026,353.21L200.026,359.047C200.026,359.574 200.456,360.002 200.982,360.002L211.416,360.002C211.943,360.002 212.371,359.574 212.371,359.047L212.371,353.21L200.026,353.21ZM212.371,352.072C212.371,351.542 211.944,351.116 211.416,351.116L206.279,351.116C205.751,351.116 205.217,350.866 205.085,350.559C204.951,350.251 204.417,350.002 203.89,350.002L201.457,350.002C200.93,350.002 200.397,350.252 200.264,350.559C200.131,350.867 200.024,351.543 200.024,352.071L200.024,352.253L212.368,352.253L212.368,352.069L212.371,352.072ZM160.693,155.946L151.275,150.2C150.587,149.757 150.025,150.083 150.025,150.925L150.025,162.079C150.025,162.921 150.587,163.247 151.275,162.804L160.691,157.058C160.691,157.058 161.025,156.826 161.025,156.502C161.025,156.178 160.692,155.946 160.692,155.946L160.693,155.946ZM158.616,252.29L161.741,255.414L154.244,262.911L151.119,259.785L158.617,252.288L158.616,252.29ZM162.334,254.79L159.242,251.696L160.567,250.371C161.057,249.881 161.847,249.881 162.337,250.371L163.662,251.694C164.15,252.182 164.15,252.974 163.662,253.461L162.336,254.788L162.334,254.79ZM150.338,264.005L150.026,263.692L150.846,261.076L152.956,263.186L150.338,264.006L150.338,264.005Z" style="fill:white;fill-rule:nonzero;"/>
    <path id="path63" d="M208.626,180.5C208.626,181.478 207.943,182.27 207.098,182.27C206.254,182.27 205.568,181.478 205.568,180.5C205.568,179.522 206.254,178.73 207.098,178.73C207.943,178.73 208.628,179.522 208.628,180.5L208.626,180.5ZM214.026,180.21C214.026,180.21 211.546,185 207.036,185C202.848,185 200.026,180.21 200.026,180.21C200.026,180.21 202.621,176 207.036,176C211.524,176 214.026,180.21 214.026,180.21ZM209.814,180.498C209.814,178.758 208.596,177.35 207.094,177.35C205.594,177.35 204.377,178.76 204.377,180.498C204.377,182.236 205.597,183.648 207.097,183.648C208.597,183.648 209.817,182.238 209.817,180.498L209.814,180.498Z" style="fill:rgb(102,102,102);fill-rule:nonzero;"/>
    <path id="path65" d="M68.484,301.78C67.804,302.08 67.074,302.285 66.309,302.376C67.091,301.906 67.692,301.166 67.974,300.281C67.242,300.713 66.432,301.028 65.57,301.198C64.88,300.462 63.895,300.002 62.806,300.002C60.361,300.002 58.564,302.282 59.116,304.652C55.97,304.495 53.179,302.987 51.312,300.696C50.32,302.398 50.797,304.626 52.484,305.752C51.864,305.734 51.279,305.562 50.768,305.279C50.728,307.034 51.985,308.674 53.806,309.039C53.273,309.185 52.689,309.219 52.096,309.105C52.576,310.61 53.976,311.705 55.633,311.735C54.041,312.982 52.036,313.54 50.027,313.303C51.705,314.379 53.695,315.006 55.834,315.006C62.864,315.006 66.837,309.068 66.597,303.742C67.335,303.208 67.977,302.542 68.485,301.782L68.484,301.78Z" style="fill:white;fill-rule:nonzero;"/>
    <path id="path67" d="M161.456,109.145C161.456,111.667 159.406,113.715 156.884,113.715C154.362,113.715 152.314,111.667 152.314,109.145C152.314,106.623 154.362,104.573 156.884,104.573L159.17,104.573L159.183,106.873L162.619,103.433L159.183,100.003L159.183,102.29L156.883,102.29C153.099,102.29 150.027,105.36 150.027,109.147C150.027,112.934 153.101,116.003 156.887,116.003C160.673,116.003 163.744,112.933 163.744,109.146L161.459,109.146L161.456,109.145Z" style="fill:rgb(102,102,102);fill-rule:nonzero;"/>
    <path id="path69" d="M156.776,51.8L159.232,54.254L153.342,60.144L150.886,57.691L156.776,51.798L156.776,51.8ZM159.698,53.763L157.268,51.333L158.308,50.293C158.693,49.91 159.315,49.91 159.698,50.293L160.738,51.333C161.123,51.719 161.123,52.34 160.738,52.723L159.698,53.763ZM150.274,61.007L150.027,60.761L150.673,58.705L152.33,60.363L150.274,61.007Z" style="fill:rgb(128,128,128);fill-rule:nonzero;"/>
    <g id="g71" transform="matrix(1,0,0,1,0.006,0.00171548)">
        <path id="path73" d="M214.097,56.47C213.565,55.932 212.857,55.604 212.111,55.536C212.758,54.956 213.168,54.116 213.168,53.178C213.168,51.423 211.744,50 209.99,50C208.313,50 206.94,51.297 206.822,52.942C208.314,53.587 209.362,55.072 209.362,56.799C209.362,57.429 209.219,58.043 208.952,58.602C209.335,58.802 209.69,59.062 210,59.374C210.792,60.169 211.243,61.271 211.232,62.394L211.232,62.437L211.202,62.967L214.992,62.967L215.022,58.77C215.03,57.91 214.692,57.088 214.088,56.48L214.097,56.47Z" style="fill:white;fill-rule:nonzero;"/>
        <path id="path75" d="M207.27,59.168C207.916,58.588 208.326,57.748 208.326,56.808C208.326,55.055 206.903,53.632 205.148,53.632C203.393,53.632 201.971,55.055 201.971,56.809C201.971,57.742 202.379,58.582 203.024,59.166C201.372,59.294 200.068,60.661 200.054,62.346L200.024,62.978L210.16,62.978L210.19,62.393C210.197,61.537 209.86,60.711 209.255,60.103C208.719,59.563 208.015,59.236 207.269,59.168L207.27,59.168Z" style="fill:white;fill-rule:nonzero;"/>
    </g>
    <path id="path81" d="M107.149,306.002L107.149,308.402L111.204,308.402C111.042,309.432 109.979,311.422 107.154,311.422C104.717,311.422 102.727,309.442 102.727,307.002C102.727,304.56 104.713,302.579 107.15,302.579C108.541,302.579 109.47,303.159 109.999,303.659L111.939,301.831C110.693,300.688 109.08,300.001 107.153,300.001C103.202,300.001 100.01,303.126 100.01,307.001C100.01,310.871 103.204,314.001 107.153,314.001C111.276,314.001 114.01,311.161 114.01,307.161C114.01,306.701 113.958,306.347 113.897,306.001L107.149,306.002Z" style="fill:white;"/>
    <path id="path89" d="M22.916,212.706L20.026,212.751L20.056,206.356C20.056,206.356 22.516,206.541 23.116,206.281C23.618,206.151 26.949,204.351 27.956,203.317C28.806,202.555 29.096,201.774 29.424,200.763C29.686,199.743 30.642,199.963 31.061,200.203C31.608,200.52 31.675,201.228 31.618,201.807C31.545,202.247 31.343,202.932 31.014,203.551C30.761,204.027 30.34,204.436 30.239,204.604C30.111,204.81 29.596,205.209 29.797,205.274C30.894,205.52 31.4,205.588 32.957,206.002C33.547,206.328 33.69,206.419 33.857,207.037C33.977,207.672 33.634,208.412 33.104,208.887C33.004,208.943 32.55,209.512 32.55,209.512C32.55,209.512 31.378,212.816 30.765,213.517C30.375,213.865 30.108,213.947 29.658,214.002C29.378,214.002 28.168,213.946 26.801,213.778C25.153,213.521 24.075,212.74 22.919,212.706L22.916,212.706ZM84.733,205.38L81.038,208.94L81.878,214.002L77.348,211.59L72.788,213.953L73.684,208.903L70.027,205.303L75.114,204.593L77.41,200.003L79.657,204.616L84.733,205.38Z" style="fill:white;fill-rule:nonzero;"/>
    <path id="path91" d="M202.533,210.892L200.027,210.93L200.055,205.45C200.055,205.45 202.188,205.61 202.708,205.386C203.145,205.274 206.035,203.732 206.908,202.846C207.644,202.191 207.898,201.522 208.182,200.656C208.409,199.78 209.238,199.968 209.602,200.176C210.076,200.446 210.134,201.054 210.084,201.55C210.022,201.928 209.847,202.514 209.561,203.044C209.341,203.454 208.976,203.804 208.889,203.947C208.779,204.124 208.332,204.467 208.506,204.523C209.456,204.733 209.896,204.793 211.246,205.148C211.756,205.425 211.881,205.504 212.026,206.033C212.131,206.576 211.832,207.211 211.373,207.618C211.286,207.666 210.893,208.154 210.893,208.154C210.893,208.154 209.876,210.989 209.343,211.589C209.006,211.889 208.773,211.959 208.383,212.005C208.139,212.005 207.093,211.958 205.905,211.815C204.475,211.595 203.54,210.925 202.537,210.895L202.533,210.892Z" style="fill:rgb(102,102,102);fill-rule:nonzero;"/>
    <path id="path93" d="M227.026,250C223.161,250 220.026,252.702 220.026,256.036C220.026,257.774 220.886,259.336 222.249,260.438C221.992,261.141 221.557,262.06 220.819,263C222.219,263 224.019,262.805 225.406,261.902C225.926,262.01 226.468,262.072 227.026,262.072C230.893,262.072 234.026,259.369 234.026,256.036C234.026,252.703 230.893,250 227.026,250Z" style="fill:white;fill-rule:nonzero;"/>
    <path id="path95" d="M3.3,212.174L0.685,212.215L0.712,206.423C0.712,206.423 2.939,206.593 3.481,206.357C3.936,206.238 6.951,204.608 7.862,203.671C8.631,202.98 8.893,202.274 9.192,201.356C9.429,200.433 10.295,200.631 10.674,200.851C11.169,201.137 11.229,201.778 11.178,202.303C11.112,202.702 10.929,203.322 10.631,203.882C10.402,204.313 10.021,204.685 9.93,204.837C9.814,205.023 9.347,205.384 9.529,205.446C10.522,205.668 10.98,205.728 12.391,206.103C12.922,206.396 13.053,206.479 13.203,207.038C13.313,207.614 13.002,208.285 12.522,208.716C12.432,208.767 12.021,209.282 12.021,209.282C12.021,209.282 10.959,212.276 10.404,212.912C10.052,213.227 9.81,213.302 9.403,213.351C9.148,213.351 8.054,213.301 6.816,213.148C5.323,212.916 4.347,212.207 3.301,212.177L3.3,212.174Z" style="fill:none;fill-rule:nonzero;stroke:white;stroke-width:1.32px;"/>
    <path id="path97" d="M64.026,205.532L60.667,208.769L61.431,213.371L57.311,211.178L53.168,213.326L53.982,208.734L50.656,205.459L55.279,204.814L57.368,200.642L59.411,204.837L64.026,205.532Z" style="fill:none;fill-rule:nonzero;stroke:white;stroke-width:1.27px;stroke-linejoin:round;"/>
    <path id="path99" d="M162.459,209.778C161.726,209.778 161.067,210.091 160.599,210.592L155.132,207.869C155.152,207.742 155.164,207.612 155.164,207.479C155.164,207.349 155.151,207.222 155.134,207.099L160.594,204.405C161.061,204.91 161.724,205.225 162.459,205.225C163.877,205.225 165.027,204.057 165.027,202.615C165.027,201.171 163.877,200.002 162.461,200.002C161.045,200.002 159.891,201.172 159.891,202.614C159.891,202.744 159.905,202.87 159.921,202.994L154.464,205.687C153.996,205.183 153.334,204.867 152.598,204.867C151.178,204.867 150.028,206.037 150.028,207.479C150.028,208.922 151.178,210.091 152.598,210.091C153.331,210.091 153.988,209.775 154.458,209.275L159.925,211.998C159.905,212.125 159.893,212.255 159.893,212.388C159.893,213.831 161.043,215 162.461,215C163.879,215 165.031,213.83 165.031,212.387C165.031,210.944 163.881,209.775 162.461,209.775L162.459,209.778Z" style="fill:rgb(119,119,119);fill-rule:nonzero;"/>
    <path id="path101" d="M157.52,300.002C153.378,300.002 150.02,303.36 150.02,307.502C150.02,310.572 151.867,313.212 154.51,314.372C154.488,313.848 154.505,313.219 154.64,312.649L155.604,308.563C155.604,308.563 155.364,308.086 155.364,307.378C155.364,306.266 156.009,305.436 156.812,305.436C157.494,305.436 157.822,305.948 157.822,306.562C157.822,307.247 157.386,308.272 157.162,309.222C156.972,310.019 157.56,310.667 158.345,310.667C159.765,310.667 160.721,308.842 160.721,306.68C160.721,305.036 159.614,303.806 157.601,303.806C155.325,303.806 153.907,305.502 153.907,307.396C153.907,308.051 154.1,308.512 154.402,308.868C154.542,309.032 154.56,309.098 154.51,309.286L154.357,309.888C154.307,310.078 154.153,310.146 153.981,310.076C152.934,309.648 152.446,308.501 152.446,307.211C152.446,305.081 154.244,302.525 157.806,302.525C160.671,302.525 162.556,304.597 162.556,306.821C162.556,309.761 160.919,311.961 158.508,311.961C157.698,311.961 156.938,311.521 156.676,311.025C156.676,311.025 156.242,312.755 156.149,313.087C155.989,313.667 155.679,314.243 155.394,314.693C156.069,314.893 156.781,315.001 157.52,315.001C161.662,315.001 165.02,311.643 165.02,307.501C165.02,303.359 161.662,300.001 157.52,300.001L157.52,300.002ZM15,302.502C15,301.19 13.814,300.002 12.5,300.002L2.5,300.002C1.187,300.002 0,301.19 0,302.502L0,312.502C0,313.817 1.187,315.002 2.5,315.002L7.5,315.002L7.5,309.337L5.669,309.337L5.669,306.837L7.502,306.837L7.502,305.861C7.502,304.181 8.764,302.667 10.314,302.667L12.336,302.667L12.336,305.167L10.312,305.167C10.092,305.167 9.834,305.437 9.834,305.839L9.834,306.834L12.334,306.834L12.334,309.334L9.834,309.334L9.834,315.002L12.499,315.002C13.812,315.002 14.999,313.817 14.999,312.502L14.999,302.502L15,302.502Z" style="fill:white;fill-rule:nonzero;"/>
    <path id="path103" d="M15.001,252.502C15.001,251.19 13.814,250.002 12.501,250.002L2.501,250.002C1.187,250.002 0.001,251.19 0.001,252.502L0.001,262.502C0.001,263.817 1.187,265.002 2.501,265.002L7.501,265.002L7.501,259.337L5.668,259.337L5.668,256.837L7.501,256.837L7.501,255.861C7.501,254.181 8.763,252.667 10.313,252.667L12.335,252.667L12.335,255.167L10.311,255.167C10.091,255.167 9.833,255.437 9.833,255.839L9.833,256.834L12.333,256.834L12.333,259.334L9.833,259.334L9.833,265.002L12.498,265.002C13.811,265.002 14.998,263.817 14.998,262.502L14.998,252.502L15.001,252.502Z" style="fill:rgb(85,85,85);fill-rule:nonzero;"/>
    <path id="path105" d="M108.761,234.002L100.011,234.002C98.285,234.002 96.886,235.402 96.886,237.127L96.886,245.877C96.886,247.602 98.286,249.002 100.011,249.002L108.761,249.002C110.487,249.002 111.886,247.602 111.886,245.877L111.886,237.127C111.886,235.401 110.486,234.002 108.761,234.002ZM102.303,244.419C100.69,244.419 99.386,243.114 99.386,241.502C99.386,239.889 100.69,238.585 102.303,238.585C103.09,238.585 103.749,238.872 104.257,239.347L103.467,240.11C103.251,239.902 102.871,239.66 102.305,239.66C101.309,239.66 100.497,240.485 100.497,241.502C100.497,242.519 101.307,243.344 102.304,243.344C103.458,243.344 103.891,242.514 103.958,242.086L102.306,242.086L102.306,241.086L105.06,241.086C105.086,241.231 105.107,241.376 105.107,241.569C105.107,243.235 103.989,244.419 102.307,244.419L102.303,244.419ZM109.386,241.919L108.136,241.919L108.136,243.169L107.302,243.169L107.302,241.919L106.052,241.919L106.052,241.086L107.302,241.086L107.302,239.836L108.136,239.836L108.136,241.086L109.386,241.086L109.386,241.919Z" style="fill:none;fill-rule:nonzero;"/>
    <path id="path107" d="M104.161,350.002C101.861,350.002 100.004,351.805 100.004,354.032L100.004,360.972C100.004,363.199 101.862,365.002 104.161,365.002L110.848,365.002C113.148,365.002 115.004,363.199 115.004,360.972L115.004,354.032C115.004,351.805 113.147,350.002 110.848,350.002L104.161,350.002ZM111.661,352.408C112.213,352.408 112.661,352.856 112.661,353.408C112.661,353.961 112.213,354.408 111.661,354.408C111.108,354.408 110.661,353.961 110.661,353.408C110.661,352.856 111.108,352.408 111.661,352.408ZM107.504,353.471C109.714,353.471 111.504,355.261 111.504,357.471C111.504,359.678 109.714,361.471 107.504,361.471C105.294,361.471 103.504,359.678 103.504,357.471C103.504,355.261 105.294,353.471 107.504,353.471ZM107.504,354.971C106.114,354.971 104.974,356.111 104.974,357.501C104.974,358.891 106.114,360.031 107.504,360.031C108.896,360.031 110.036,358.891 110.036,357.501C110.036,356.111 108.896,354.971 107.504,354.971Z" style="fill:rgb(85,85,85);fill-rule:nonzero;"/>
    <path id="path109" d="M204.162,300.002C201.864,300.002 200.006,301.805 200.006,304.032L200.006,310.972C200.006,313.199 201.864,315.002 204.162,315.002L210.85,315.002C213.148,315.002 215.006,313.199 215.006,310.972L215.006,304.032C215.006,301.805 213.148,300.002 210.85,300.002L204.162,300.002ZM211.662,302.408C212.214,302.408 212.662,302.856 212.662,303.408C212.662,303.961 212.214,304.408 211.662,304.408C211.11,304.408 210.662,303.961 210.662,303.408C210.662,302.856 211.11,302.408 211.662,302.408ZM207.506,303.471C209.716,303.471 211.506,305.261 211.506,307.471C211.506,309.678 209.716,311.471 207.506,311.471C205.296,311.471 203.506,309.678 203.506,307.471C203.506,305.261 205.296,303.471 207.506,303.471ZM207.506,304.971C206.116,304.971 204.976,306.111 204.976,307.501C204.976,308.891 206.116,310.031 207.506,310.031C208.896,310.031 210.036,308.891 210.036,307.501C210.036,306.111 208.896,304.971 207.506,304.971Z" style="fill:white;fill-rule:nonzero;"/>
    <path id="path3035" d="M19.598,117.762L14.386,112.527C16.566,109.624 16.298,105.215 13.813,102.578C11.426,99.901 7.166,99.192 4.067,101.015C1.089,102.673 -0.573,106.379 0.236,109.716C0.996,113.204 4.317,115.943 7.894,115.894C9.541,115.902 11.186,115.365 12.522,114.395C14.292,116.166 16.05,117.95 17.827,119.712C18.9,120.666 20.764,119.062 19.73,117.911L19.597,117.761L19.598,117.762ZM7.962,114.023C4.89,114.107 2.063,111.457 1.918,108.373C1.677,105.482 3.771,102.599 6.615,102.012C9.356,101.359 12.435,102.876 13.521,105.503C14.705,108.164 13.695,111.62 11.169,113.108C10.213,113.704 9.089,114.028 7.966,114.023L7.962,114.023Z" style="fill:rgb(99,99,99);fill-rule:nonzero;"/>
    <path id="path17-1" d="M216.656,15.096L212.226,10.646C214.079,8.18 213.852,4.433 211.74,2.191C209.71,-0.086 206.09,-0.689 203.457,0.861C200.927,2.271 199.515,5.421 200.202,8.257C200.848,11.22 203.672,13.551 206.712,13.507C208.112,13.514 209.512,13.057 210.646,12.234C212.149,13.739 213.642,15.254 215.153,16.754C216.066,17.564 217.65,16.201 216.771,15.222L216.658,15.095L216.656,15.096ZM206.766,11.918C204.156,11.99 201.753,9.738 201.629,7.118C201.424,4.658 203.204,2.208 205.619,1.71C207.949,1.155 210.566,2.444 211.489,4.678C212.496,6.938 211.637,9.875 209.489,11.14C208.679,11.647 207.724,11.923 206.767,11.918L206.766,11.918Z" style="fill:rgb(99,99,99);fill-rule:nonzero;"/>
    <path id="path3044" d="M100.029,150.002L122.029,150.002L122.029,152.002L100.029,152.002L100.029,150.002ZM100.029,157.002L122.029,157.002L122.029,159.002L100.029,159.002L100.029,157.002ZM100.029,164.002L122.029,164.002L122.029,166.002L100.029,166.002L100.029,164.002Z" style="fill:white;fill-rule:nonzero;"/>
    <g id="g3046" transform="matrix(1,0,0,1,-50.0239,0.00171548)">
        <path id="path3048" d="M57.52,159.055C60.293,159.055 61.29,156.535 61.552,154.467C61.874,151.917 60.545,150 57.522,150C54.498,150 53.169,151.918 53.49,154.467C53.752,156.537 54.75,159.057 57.52,159.055Z" style="fill:white;fill-rule:nonzero;"/>
        <path id="path3050" d="M65.02,165.053C64.99,164.25 64.886,163.443 64.732,162.653C64.545,161.696 64.306,160.293 63.385,159.668C62.853,159.308 62.163,159.188 61.553,158.972C61.256,158.866 60.99,158.762 60.741,158.642C59.901,159.479 58.801,159.918 57.521,159.918C56.244,159.918 55.146,159.478 54.301,158.641C54.054,158.761 53.788,158.868 53.491,158.974C52.881,159.191 52.191,159.309 51.659,159.67C50.739,160.293 50.499,161.697 50.312,162.654C50.159,163.444 50.055,164.251 50.025,165.054C50.002,165.676 50.34,165.764 50.913,165.951C51.633,166.187 52.373,166.361 53.119,166.504C54.559,166.78 56.046,166.994 57.525,167.002C59.005,166.992 60.49,166.782 61.931,166.505C62.677,166.362 63.418,166.188 64.136,165.953C64.711,165.766 65.049,165.679 65.026,165.057L65.02,165.053Z" style="fill:white;fill-rule:nonzero;"/>
    </g>
    <path id="path4" d="M150.936,380.908L156.335,386.708L161.735,380.908" style="fill:none;fill-rule:nonzero;stroke:rgb(135,138,158);stroke-width:1.8px;stroke-linecap:round;stroke-linejoin:round;"/>
    <path id="path6" d="M108.029,250.002L106.619,251.412L112.199,257.002L100.029,257.002L100.029,259.002L112.199,259.002L106.619,264.592L108.029,266.002L116.029,258.002L108.029,250.002Z" style="fill:white;fill-rule:nonzero;"/>
    <g id="g3855" transform="matrix(1,0,0,1,-0.992743,0)">
        <path id="path3043" d="M60.782,53.924C60.679,54.172 60.318,54.432 60.122,54.247L58.291,52.512L58.291,60.029C58.291,60.397 57.868,60.696 57.5,60.696C57.132,60.696 56.708,60.397 56.708,60.029L56.708,52.744L54.921,54.247C54.715,54.42 54.409,54.084 54.305,53.835C54.202,53.586 54.171,53.388 54.362,53.197L57.028,50.53C57.289,50.27 57.71,50.27 57.971,50.53L60.638,53.197C60.828,53.388 60.886,53.674 60.782,53.924L60.782,53.924Z" style="fill:white;fill-rule:nonzero;stroke:white;stroke-width:0.63px;"/>
        <path id="path3045" d="M61.773,65.001L53.283,65.002C52.18,65.002 51.283,64.104 51.283,63.002L51.283,57.982C51.283,57.614 51.582,57.315 51.95,57.315C52.318,57.315 52.616,57.614 52.616,57.982L52.616,63.002C52.616,63.369 52.916,63.668 53.283,63.668L61.773,63.668C62.141,63.668 62.44,63.369 62.44,63.001L62.44,57.981C62.44,57.613 62.739,57.315 63.107,57.315C63.475,57.315 63.773,57.613 63.773,57.981L63.773,63.001C63.773,64.104 62.876,65.001 61.773,65.001Z" style="fill:white;fill-rule:nonzero;stroke:white;stroke-width:0.53px;"/>
    </g>
    <path id="path3841" d="M10.792,56.754C10.689,56.505 10.285,56.248 10.087,56.431L8.301,58.077L8.301,51.002C8.301,50.634 7.877,50.335 7.509,50.335C7.141,50.335 6.717,50.634 6.717,51.002L6.717,57.978L4.842,56.342C4.64,56.165 4.33,56.505 4.227,56.754C4.123,57.003 4.181,57.29 4.371,57.48L7.038,60.147C7.299,60.408 7.72,60.408 7.981,60.147L10.647,57.48C10.838,57.29 10.895,57.003 10.792,56.754Z" style="fill:white;fill-rule:nonzero;stroke:white;stroke-width:0.63px;"/>
    <path id="path3843" d="M12.783,65.001L2.298,65.002C1.195,65.002 0.298,64.104 0.298,63.002L0.298,56.91C0.298,56.542 0.596,56.243 0.964,56.243C1.332,56.243 1.631,56.542 1.631,56.91L1.631,63.002C1.631,63.369 1.93,63.668 2.298,63.668L12.783,63.668C13.15,63.668 13.45,63.369 13.45,63.001L13.45,56.953C13.45,56.585 13.748,56.287 14.116,56.287C14.484,56.287 14.783,56.585 14.783,56.953L14.783,63.001C14.783,64.104 13.886,65.001 12.783,65.001Z" style="fill:white;fill-rule:nonzero;stroke:white;stroke-width:0.53px;"/>
    <g transform="matrix(0.983959,0,0,1.0163,149.027,119.002)">
        <g id="g3826">
            <g id="text3921">
                <g id="g3056">
                    <g id="rect3919" transform="matrix(1.0163,0,0,0.983959,0,0)">
                        <path d="M-110.998,268C-110.998,266.896 -111.894,266 -112.998,266L-146.998,266C-148.102,266 -148.998,266.896 -148.998,268L-148.998,302C-148.998,303.104 -148.102,304 -146.998,304L-112.998,304C-111.894,304 -110.998,303.104 -110.998,302L-110.998,268Z" style="fill:rgb(25,27,38);"/>
                    </g>
                    <path id="path3051" d="M-138.973,270.128C-141.059,270.18 -142.792,270.896 -144.172,272.277C-145.552,273.657 -146.269,275.39 -146.321,277.475L-146.321,290.76L-143.401,290.76L-143.401,284.856L-138.973,284.856C-136.886,284.802 -135.148,284.081 -133.758,282.691C-132.368,281.301 -131.646,279.562 -131.593,277.475C-131.646,275.39 -132.368,273.657 -133.758,272.277C-135.148,270.896 -136.886,270.18 -138.973,270.128ZM-143.401,281.936L-143.401,277.475C-143.37,276.215 -142.94,275.169 -142.11,274.339C-141.279,273.509 -140.234,273.078 -138.973,273.047C-137.697,273.078 -136.642,273.509 -135.808,274.339C-134.974,275.169 -134.542,276.215 -134.512,277.475C-134.542,278.752 -134.974,279.807 -135.808,280.641C-136.642,281.474 -137.697,281.906 -138.973,281.936L-143.401,281.936Z" style="fill:white;fill-rule:nonzero;"/>
                    <path id="path3053" d="M-125.698,279.353L-125.593,279.353L-121.49,284.823L-117.914,284.823L-123.489,277.249L-118.545,270.096L-122.122,270.096L-125.593,275.145L-125.698,275.145L-129.169,270.096L-132.746,270.096L-127.802,277.249L-133.377,284.823L-129.8,284.823L-125.698,279.353Z" style="fill:white;fill-rule:nonzero;"/>
                </g>
            </g>
        </g>
    </g>
    <g id="g3058" transform="matrix(1,0,0,1,60.5294,393.002)">
        <rect id="path3048-1" x="0" y="0" width="24" height="24" style="fill:none;fill-rule:nonzero;"/>
    </g>
    <g id="g3840" transform="matrix(0.638889,0,0,0.638889,50.3628,100.341)">
        <path id="path3832" d="M12.02,0C18.634,0.011 24,5.383 24,12C24,18.623 18.624,24 12,24C5.377,24 0,18.623 0,12C0,5.383 5.367,0.011 11.981,0L12.02,0ZM15.714,16L8.287,16C8.926,20.266 10.529,23 12,23C13.472,23 15.075,20.266 15.714,16M22.249,16L16.726,16C16.3,18.985 15.405,21.402 14.241,22.771C17.91,22.011 20.912,19.421 22.249,16M7.275,16L1.751,16C3.089,19.421 6.091,22.011 9.76,22.771C8.596,21.402 7.701,18.985 7.275,16M7.152,9L1.416,9C1.085,10.166 0.675,12.389 1.416,15L7.152,15C6.964,13.186 6.937,11.075 7.152,9M15.843,9L8.158,9C7.963,10.8 7.933,12.927 8.158,15L15.843,15C16.039,13.189 16.067,11.07 15.843,9M22.585,9L16.849,9C16.911,9.592 17.157,12.019 16.849,15L22.585,15C23.326,12.388 22.916,10.165 22.585,9M9.76,1.229C6.091,1.989 3.089,4.579 1.751,8L7.275,8C7.701,5.015 8.596,2.597 9.76,1.229M15.714,8C15.075,3.734 13.472,1 12,1C10.529,1 8.926,3.734 8.287,8L15.714,8ZM14.241,1.229C15.405,2.597 16.3,5.015 16.726,8L22.249,8C20.912,4.579 17.91,1.989 14.241,1.229" style="fill:white;stroke:white;stroke-width:1.04px;"/>
    </g>
    <g transform="matrix(0.219178,0,0,0.219178,100.004,380)">
        <path d="M36.5,73C32.74,73 30.05,70.172 27.895,67.91C26.978,66.796 25.882,65.841 24.654,65.083C23.156,64.71 21.607,64.591 20.069,64.731C16.828,64.731 13.176,64.853 10.608,62.301C8.04,59.748 8.193,56.095 8.254,52.855C8.398,51.317 8.278,49.767 7.902,48.269C7.144,47.042 6.189,45.946 5.075,45.029C2.874,42.95 0,40.26 0,36.5C0,32.74 2.874,30.05 5.074,27.895C6.189,26.978 7.144,25.882 7.902,24.654C8.278,23.156 8.397,21.607 8.254,20.069C8.254,16.844 8.132,13.176 10.684,10.623C13.237,8.07 16.905,8.132 20.145,8.193C21.683,8.336 23.233,8.219 24.731,7.841C25.958,7.083 27.052,6.128 27.971,5.013C30.05,2.874 32.74,0 36.5,0C40.26,0 42.95,2.874 45.105,5.09C46.022,6.204 47.118,7.159 48.346,7.917C49.844,8.293 51.393,8.413 52.931,8.269C56.172,8.269 59.825,8.147 62.392,10.699C64.96,13.252 64.884,16.92 64.823,20.145C64.679,21.683 64.798,23.233 65.174,24.731C65.932,25.958 66.888,27.054 68.002,27.971C70.126,30.05 73,32.74 73,36.5C73,40.26 70.126,42.95 67.926,45.105C66.811,46.022 65.856,47.118 65.098,48.346C64.722,49.844 64.603,51.393 64.746,52.931C64.746,56.156 64.869,59.825 62.316,62.377C59.764,64.93 56.095,64.868 52.855,64.807C51.317,64.662 49.767,64.781 48.269,65.159C47.042,65.917 45.948,66.872 45.029,67.987C42.95,70.126 40.26,73 36.5,73Z" style="fill:white;fill-opacity:0.1;fill-rule:nonzero;"/>
    </g>
    <g transform="matrix(0.219178,0,0,0.219178,100.004,380)">
        <path d="M36.5,73C32.74,73 30.05,70.172 27.895,67.91C26.978,66.796 25.882,65.841 24.654,65.083C23.156,64.71 21.607,64.591 20.069,64.731C16.828,64.731 13.176,64.853 10.608,62.301C8.04,59.748 8.193,56.095 8.254,52.855C8.398,51.317 8.278,49.767 7.902,48.269C7.144,47.042 6.189,45.946 5.075,45.029C2.874,42.95 0,40.26 0,36.5C0,32.74 2.874,30.05 5.074,27.895C6.189,26.978 7.144,25.882 7.902,24.654C8.278,23.156 8.397,21.607 8.254,20.069C8.254,16.844 8.132,13.176 10.684,10.623C13.237,8.07 16.905,8.132 20.145,8.193C21.683,8.336 23.233,8.219 24.731,7.841C25.958,7.083 27.052,6.128 27.971,5.013C30.05,2.874 32.74,0 36.5,0C40.26,0 42.95,2.874 45.105,5.09C46.022,6.204 47.118,7.159 48.346,7.917C49.844,8.293 51.393,8.413 52.931,8.269C56.172,8.269 59.825,8.147 62.392,10.699C64.96,13.252 64.884,16.92 64.823,20.145C64.679,21.683 64.798,23.233 65.174,24.731C65.932,25.958 66.888,27.054 68.002,27.971C70.126,30.05 73,32.74 73,36.5C73,40.26 70.126,42.95 67.926,45.105C66.811,46.022 65.856,47.118 65.098,48.346C64.722,49.844 64.603,51.393 64.746,52.931C64.746,56.156 64.869,59.825 62.316,62.377C59.764,64.93 56.095,64.868 52.855,64.807C51.317,64.662 49.767,64.781 48.269,65.159C47.042,65.917 45.948,66.872 45.029,67.987C42.95,70.126 40.26,73 36.5,73ZM21.552,58.403C23.428,58.317 25.304,58.603 27.069,59.244C29.14,60.289 30.972,61.752 32.45,63.539C33.779,64.93 35.507,66.672 36.485,66.672C37.463,66.672 39.19,64.93 40.52,63.539C41.998,61.752 43.829,60.289 45.9,59.244C48.167,58.489 50.567,58.209 52.946,58.418C54.719,58.418 57.165,58.418 57.822,57.837C58.479,57.257 58.434,54.78 58.403,52.962C58.194,50.582 58.473,48.182 59.228,45.915C60.274,43.844 61.737,42.013 63.523,40.535C64.914,39.205 66.657,37.478 66.657,36.5C66.657,35.522 64.914,33.794 63.523,32.465C61.737,30.987 60.274,29.156 59.228,27.085C58.473,24.818 58.192,22.418 58.403,20.038C58.403,18.265 58.403,15.82 57.822,15.163C57.241,14.505 54.765,14.536 52.946,14.582C50.567,14.791 48.168,14.51 45.9,13.756C43.829,12.711 41.998,11.248 40.52,9.461C39.19,8.07 37.463,6.328 36.485,6.328C35.507,6.328 33.779,8.07 32.45,9.461C30.971,11.248 29.14,12.711 27.069,13.756C24.801,14.51 22.403,14.791 20.023,14.582C18.25,14.582 15.805,14.582 15.147,15.163C14.49,15.743 14.536,18.22 14.566,20.038C14.776,22.418 14.496,24.818 13.741,27.085C12.695,29.156 11.233,30.987 9.446,32.465C8.055,33.795 6.313,35.522 6.313,36.5C6.313,37.478 8.055,39.205 9.446,40.535C11.233,42.013 12.695,43.844 13.741,45.915C14.496,48.182 14.777,50.582 14.566,52.962C14.566,54.735 14.566,57.18 15.147,57.837C15.728,58.495 18.204,58.449 20.023,58.418L21.552,58.403Z" style="fill:white;fill-rule:nonzero;"/>
    </g>
    <g transform="matrix(0.219178,0,0,0.219178,100.004,380)">
        <path d="M33.443,47.291C32.726,47.293 32.031,47.05 31.471,46.603L23.829,40.489C22.47,39.401 22.252,37.416 23.34,36.057C24.428,34.698 26.414,34.48 27.773,35.568L33.214,39.924L44.968,28.17C46.2,26.938 48.199,26.938 49.431,28.17C50.663,29.402 50.663,31.401 49.431,32.633L35.675,46.389C35.08,46.973 34.278,47.297 33.443,47.291Z" style="fill:white;fill-rule:nonzero;"/>
    </g>
</svg>
